<?xml version="1.0" encoding="UTF-8"?>
<svg xmlns="http://www.w3.org/2000/svg" xmlns:xlink="http://www.w3.org/1999/xlink" width="44px" height="44px" viewBox="0 0 44 44" version="1.1">
<g id="surface1">
<path style=" stroke:none;fill-rule:nonzero;fill:rgb(55.29412%,4.705882%,97.254902%);fill-opacity:1;" d="M 11.675781 1.339844 C 11.84375 1.339844 12.011719 1.339844 12.179688 1.339844 C 12.632812 1.335938 13.085938 1.335938 13.535156 1.335938 C 13.914062 1.335938 14.296875 1.335938 14.675781 1.335938 C 15.570312 1.335938 16.464844 1.335938 17.359375 1.335938 C 18.28125 1.335938 19.203125 1.335938 20.121094 1.335938 C 20.914062 1.332031 21.707031 1.332031 22.5 1.332031 C 22.972656 1.332031 23.445312 1.332031 23.917969 1.332031 C 24.363281 1.328125 24.808594 1.328125 25.253906 1.332031 C 25.414062 1.332031 25.578125 1.332031 25.738281 1.332031 C 28.457031 1.316406 30.894531 2.28125 32.851562 4.195312 C 34.835938 6.207031 35.355469 8.722656 35.539062 11.441406 C 35.550781 11.59375 35.5625 11.746094 35.574219 11.894531 C 35.582031 12.046875 35.59375 12.199219 35.605469 12.347656 C 35.609375 12.414062 35.613281 12.480469 35.621094 12.546875 C 35.636719 12.777344 35.648438 13.003906 35.664062 13.234375 C 35.671875 13.347656 35.679688 13.460938 35.6875 13.574219 C 35.746094 14.539062 35.765625 15.5 35.765625 16.464844 C 35.769531 16.625 35.769531 16.785156 35.769531 16.941406 C 35.769531 17.445312 35.769531 17.949219 35.773438 18.453125 C 35.773438 18.539062 35.773438 18.625 35.773438 18.714844 C 35.773438 21.277344 35.746094 23.828125 35.492188 26.382812 C 35.484375 26.453125 35.480469 26.523438 35.472656 26.597656 C 35.449219 26.816406 35.429688 27.035156 35.40625 27.253906 C 35.398438 27.320312 35.394531 27.382812 35.386719 27.453125 C 35.117188 30.011719 33.867188 32.054688 31.957031 33.746094 C 30.878906 34.613281 29.53125 35.25 28.1875 35.578125 C 28.128906 35.59375 28.070312 35.605469 28.011719 35.621094 C 27.203125 35.796875 26.394531 35.773438 25.570312 35.773438 C 25.402344 35.773438 25.234375 35.773438 25.066406 35.773438 C 24.609375 35.777344 24.15625 35.777344 23.699219 35.777344 C 23.320312 35.777344 22.9375 35.777344 22.558594 35.777344 C 21.660156 35.777344 20.761719 35.777344 19.863281 35.777344 C 18.9375 35.777344 18.011719 35.777344 17.085938 35.78125 C 16.292969 35.78125 15.496094 35.78125 14.699219 35.78125 C 14.222656 35.78125 13.75 35.78125 13.273438 35.78125 C 12.828125 35.785156 12.382812 35.785156 11.933594 35.78125 C 11.773438 35.78125 11.609375 35.78125 11.445312 35.78125 C 10.488281 35.785156 9.609375 35.726562 8.679688 35.492188 C 8.613281 35.476562 8.550781 35.460938 8.484375 35.445312 C 6.140625 34.8125 4.136719 33.191406 2.910156 31.117188 C 2.0625 29.613281 1.796875 28.089844 1.648438 26.386719 C 1.632812 26.207031 1.613281 26.03125 1.597656 25.851562 C 1.121094 21.046875 1.140625 16.007812 1.613281 11.199219 C 1.636719 10.976562 1.65625 10.753906 1.675781 10.527344 C 1.6875 10.367188 1.703125 10.207031 1.71875 10.046875 C 1.726562 9.972656 1.730469 9.898438 1.738281 9.824219 C 1.960938 7.425781 3.082031 5.207031 4.898438 3.609375 C 6.902344 1.984375 9.121094 1.332031 11.675781 1.339844 Z M 10.386719 4.199219 C 10.328125 4.207031 10.269531 4.214844 10.210938 4.222656 C 8.488281 4.4375 6.953125 5.367188 5.878906 6.71875 C 4.753906 8.261719 4.546875 9.917969 4.414062 11.761719 C 4.40625 11.902344 4.394531 12.039062 4.382812 12.175781 C 4.359375 12.519531 4.332031 12.863281 4.308594 13.207031 C 4.300781 13.335938 4.292969 13.464844 4.285156 13.59375 C 4.203125 14.738281 4.199219 15.878906 4.207031 17.027344 C 4.207031 17.210938 4.207031 17.394531 4.207031 17.578125 C 4.207031 18.019531 4.210938 18.464844 4.210938 18.90625 C 4.726562 18.863281 5.234375 18.808594 5.746094 18.730469 C 6.585938 18.617188 7.429688 18.613281 8.277344 18.617188 C 8.359375 18.617188 8.445312 18.617188 8.53125 18.617188 C 9.871094 18.621094 11.148438 18.695312 12.460938 18.992188 C 12.585938 19.019531 12.585938 19.019531 12.710938 19.046875 C 15.171875 19.59375 17.644531 20.574219 19.679688 22.085938 C 19.769531 22.152344 19.859375 22.21875 19.953125 22.289062 C 20.640625 22.796875 20.640625 22.796875 20.929688 23.058594 C 21.125 23.21875 21.125 23.21875 21.335938 23.207031 C 21.679688 23.074219 21.996094 22.894531 22.316406 22.714844 C 25.339844 21.082031 29.003906 20.894531 32.265625 21.859375 C 32.324219 21.878906 32.386719 21.894531 32.449219 21.914062 C 32.71875 22.007812 32.71875 22.007812 32.914062 22 C 32.980469 17.269531 32.980469 17.269531 32.796875 12.542969 C 32.789062 12.464844 32.785156 12.390625 32.78125 12.3125 C 32.746094 11.847656 32.703125 11.378906 32.65625 10.914062 C 32.648438 10.84375 32.644531 10.777344 32.636719 10.707031 C 32.617188 10.496094 32.59375 10.289062 32.574219 10.082031 C 32.566406 9.988281 32.566406 9.988281 32.554688 9.894531 C 32.40625 8.507812 31.757812 7.3125 30.851562 6.273438 C 30.808594 6.21875 30.761719 6.167969 30.714844 6.113281 C 29.539062 4.824219 27.734375 4.230469 26.039062 4.125 C 25.554688 4.113281 25.074219 4.113281 24.589844 4.113281 C 24.445312 4.113281 24.300781 4.113281 24.15625 4.113281 C 23.769531 4.109375 23.378906 4.109375 22.988281 4.109375 C 22.746094 4.109375 22.5 4.109375 22.257812 4.109375 C 21.402344 4.109375 20.550781 4.109375 19.695312 4.109375 C 18.902344 4.109375 18.113281 4.109375 17.320312 4.105469 C 16.636719 4.105469 15.953125 4.105469 15.269531 4.105469 C 14.863281 4.105469 14.457031 4.105469 14.050781 4.105469 C 13.667969 4.101562 13.285156 4.101562 12.902344 4.105469 C 12.761719 4.105469 12.621094 4.105469 12.484375 4.101562 C 11.78125 4.101562 11.085938 4.121094 10.386719 4.199219 Z M 10.386719 4.199219 "/>
<path style=" stroke:none;fill-rule:nonzero;fill:rgb(72.549021%,10.980392%,93.333334%);fill-opacity:1;" d="M 42.28125 18.5625 C 42.515625 18.796875 42.484375 18.9375 42.503906 19.265625 C 42.507812 19.378906 42.515625 19.492188 42.523438 19.605469 C 42.527344 19.734375 42.535156 19.859375 42.539062 19.984375 C 42.546875 20.113281 42.554688 20.246094 42.5625 20.375 C 42.574219 20.65625 42.589844 20.9375 42.601562 21.21875 C 42.621094 21.582031 42.640625 21.941406 42.664062 22.304688 C 42.707031 23.046875 42.738281 23.789062 42.757812 24.53125 C 42.769531 24.914062 42.785156 25.296875 42.808594 25.679688 C 42.984375 28.398438 42.984375 28.398438 42.121094 29.417969 C 41.574219 30.019531 40.945312 30.527344 40.304688 31.023438 C 39.84375 31.410156 39.414062 31.816406 38.992188 32.246094 C 38.933594 32.300781 38.878906 32.359375 38.820312 32.417969 C 38.640625 32.597656 38.464844 32.777344 38.285156 32.957031 C 38.050781 33.195312 37.816406 33.433594 37.578125 33.667969 C 37.5 33.75 37.5 33.75 37.417969 33.832031 C 37.101562 34.148438 36.773438 34.445312 36.433594 34.738281 C 36.160156 34.984375 35.898438 35.246094 35.640625 35.511719 C 35.582031 35.566406 35.527344 35.625 35.46875 35.683594 C 35.289062 35.863281 35.113281 36.042969 34.933594 36.222656 C 34.699219 36.460938 34.464844 36.699219 34.226562 36.933594 C 34.148438 37.015625 34.148438 37.015625 34.066406 37.097656 C 33.75 37.414062 33.421875 37.714844 33.082031 38.007812 C 32.8125 38.246094 32.558594 38.5 32.308594 38.757812 C 32.253906 38.8125 32.199219 38.867188 32.140625 38.925781 C 31.96875 39.097656 31.796875 39.273438 31.625 39.445312 C 30.253906 40.828125 30.253906 40.828125 29.84375 41.152344 C 29.675781 41.3125 29.558594 41.457031 29.425781 41.644531 C 28.976562 42.226562 28.554688 42.632812 27.804688 42.738281 C 27.183594 42.785156 26.5625 42.773438 25.9375 42.753906 C 25.625 42.746094 25.308594 42.746094 24.996094 42.746094 C 24.402344 42.742188 23.808594 42.730469 23.214844 42.71875 C 22.539062 42.703125 21.859375 42.695312 21.183594 42.691406 C 19.792969 42.675781 18.40625 42.652344 17.015625 42.625 C 17.097656 42.527344 17.179688 42.433594 17.261719 42.335938 C 17.308594 42.28125 17.355469 42.226562 17.402344 42.171875 C 17.542969 42.007812 17.695312 41.855469 17.855469 41.710938 C 17.910156 41.65625 17.96875 41.605469 18.027344 41.550781 C 18.113281 41.472656 18.113281 41.472656 18.203125 41.390625 C 18.585938 41.035156 18.96875 40.679688 19.335938 40.304688 C 19.550781 40.085938 19.773438 39.875 20.007812 39.675781 C 20.363281 39.371094 20.6875 39.042969 21.015625 38.710938 C 21.09375 38.628906 21.175781 38.546875 21.257812 38.464844 C 21.351562 38.375 21.4375 38.285156 21.523438 38.191406 C 21.878906 37.84375 22.140625 37.753906 22.636719 37.742188 C 22.753906 37.746094 22.753906 37.746094 22.875 37.746094 C 22.957031 37.746094 23.042969 37.746094 23.128906 37.742188 C 23.394531 37.742188 23.660156 37.742188 23.929688 37.742188 C 24.191406 37.742188 24.453125 37.738281 24.71875 37.738281 C 24.886719 37.734375 25.058594 37.734375 25.230469 37.734375 C 26.21875 37.726562 27.203125 37.703125 28.171875 37.5 C 28.242188 37.484375 28.3125 37.472656 28.386719 37.457031 C 31.375 36.796875 34.015625 34.976562 35.664062 32.398438 C 37.125 30.027344 37.382812 27.378906 37.5 24.65625 C 37.507812 24.546875 37.511719 24.4375 37.519531 24.324219 C 37.527344 24.121094 37.535156 23.914062 37.539062 23.710938 C 37.5625 23.242188 37.589844 22.9375 37.929688 22.59375 C 38.03125 22.507812 38.136719 22.425781 38.242188 22.34375 C 38.347656 22.253906 38.453125 22.160156 38.558594 22.070312 C 38.617188 22.019531 38.671875 21.972656 38.730469 21.921875 C 38.980469 21.699219 39.210938 21.464844 39.445312 21.226562 C 39.773438 20.894531 40.109375 20.578125 40.464844 20.273438 C 40.757812 20.011719 41.027344 19.730469 41.304688 19.453125 C 41.617188 19.136719 41.9375 18.84375 42.28125 18.5625 Z M 42.28125 18.5625 "/>
<path style=" stroke:none;fill-rule:nonzero;fill:rgb(50.196081%,2.745098%,98.039216%);fill-opacity:1;" d="M 28.472656 6.816406 C 29.351562 7.480469 30.082031 8.328125 30.25 9.453125 C 30.371094 10.953125 30.148438 12.0625 29.164062 13.230469 C 28.472656 13.972656 27.589844 14.410156 26.585938 14.464844 C 25.148438 14.511719 24.121094 14.199219 23.054688 13.207031 C 22.195312 12.300781 21.957031 11.308594 21.964844 10.09375 C 22 8.882812 22.5 7.929688 23.378906 7.097656 C 24.8125 5.921875 26.921875 5.785156 28.472656 6.816406 Z M 28.472656 6.816406 "/>
<path style=" stroke:none;fill-rule:nonzero;fill:rgb(80.000001%,13.725491%,91.764706%);fill-opacity:1;" d="M 42.367188 32.65625 C 42.285156 35.234375 41.753906 37.578125 39.960938 39.53125 C 39.890625 39.609375 39.816406 39.6875 39.746094 39.769531 C 38.238281 41.347656 36.0625 42.523438 33.855469 42.636719 C 33.59375 42.640625 33.332031 42.640625 33.070312 42.636719 C 32.933594 42.632812 32.933594 42.632812 32.796875 42.632812 C 32.578125 42.632812 32.359375 42.628906 32.140625 42.625 C 32.519531 42.171875 32.914062 41.75 33.332031 41.335938 C 33.390625 41.277344 33.449219 41.21875 33.507812 41.160156 C 33.566406 41.101562 33.621094 41.046875 33.679688 40.988281 C 33.730469 40.9375 33.78125 40.886719 33.835938 40.832031 C 34.007812 40.671875 34.179688 40.519531 34.359375 40.367188 C 34.703125 40.066406 35.023438 39.75 35.34375 39.425781 C 35.402344 39.371094 35.457031 39.3125 35.515625 39.253906 C 35.695312 39.074219 35.871094 38.894531 36.050781 38.714844 C 36.285156 38.476562 36.519531 38.238281 36.757812 38.003906 C 36.808594 37.949219 36.863281 37.898438 36.917969 37.839844 C 37.234375 37.523438 37.5625 37.222656 37.902344 36.929688 C 38.171875 36.691406 38.425781 36.4375 38.675781 36.179688 C 38.730469 36.125 38.785156 36.070312 38.84375 36.011719 C 39.015625 35.839844 39.1875 35.664062 39.359375 35.492188 C 40.675781 34.164062 40.675781 34.164062 41.195312 33.722656 C 41.46875 33.484375 41.71875 33.222656 41.972656 32.964844 C 42.273438 32.65625 42.273438 32.65625 42.367188 32.65625 Z M 42.367188 32.65625 "/>
<path style=" stroke:none;fill-rule:nonzero;fill:rgb(62.352943%,7.058824%,95.686275%);fill-opacity:1;" d="M 38.671875 10.226562 C 40.40625 11.320312 41.515625 13.261719 42.023438 15.210938 C 41.808594 15.429688 41.59375 15.644531 41.378906 15.859375 C 41.320312 15.921875 41.257812 15.980469 41.199219 16.042969 C 40.851562 16.394531 40.492188 16.726562 40.121094 17.046875 C 39.882812 17.253906 39.664062 17.476562 39.445312 17.703125 C 39.101562 18.050781 38.753906 18.382812 38.382812 18.699219 C 38.226562 18.832031 38.226562 18.832031 38.039062 19.03125 C 37.898438 19.164062 37.898438 19.164062 37.726562 19.164062 C 37.726562 19.117188 37.726562 19.070312 37.722656 19.019531 C 37.71875 18.507812 37.707031 17.996094 37.699219 17.480469 C 37.695312 17.183594 37.691406 16.882812 37.6875 16.582031 C 37.671875 15.644531 37.644531 14.71875 37.554688 13.785156 C 37.339844 11.523438 37.339844 11.523438 37.726562 10.957031 C 38.003906 10.640625 38.304688 10.425781 38.671875 10.226562 Z M 38.671875 10.226562 "/>
<path style=" stroke:none;fill-rule:nonzero;fill:rgb(64.313728%,7.843138%,94.901961%);fill-opacity:1;" d="M 9.710938 37.726562 C 13.878906 37.769531 13.878906 37.769531 18.132812 37.8125 C 17.648438 38.378906 17.164062 38.902344 16.601562 39.386719 C 16.265625 39.675781 15.957031 39.984375 15.648438 40.300781 C 15.363281 40.585938 15.070312 40.855469 14.761719 41.113281 C 14.527344 41.320312 14.3125 41.542969 14.09375 41.765625 C 12.304688 41.21875 10.863281 39.699219 9.882812 38.15625 C 9.824219 38.015625 9.769531 37.871094 9.710938 37.726562 Z M 9.710938 37.726562 "/>
</g>
</svg>
