<?xml version="1.0" encoding="UTF-8"?>
<svg version="1.1" xmlns="http://www.w3.org/2000/svg" width="512" height="512">
<path d="M0 0 C1.95328153 -0.00571565 3.90655972 -0.01268449 5.85983276 -0.02079773 C11.12243086 -0.03861359 16.38486116 -0.03758253 21.64748025 -0.03185534 C26.0604912 -0.02874621 30.47347072 -0.03487509 34.88647717 -0.04089409 C45.30797147 -0.05490015 55.72938372 -0.05341117 66.15087891 -0.04199219 C76.8578621 -0.03051874 87.56459458 -0.04458275 98.27154475 -0.07138866 C107.50519093 -0.0936299 116.7387589 -0.10016402 125.97242993 -0.09431225 C131.4691975 -0.0909611 136.96580449 -0.09323395 142.46254921 -0.11056328 C147.63628142 -0.12616501 152.80964573 -0.12193196 157.98336411 -0.10325813 C159.86734516 -0.09960835 161.75135429 -0.10257334 163.63530922 -0.11314392 C195.26152463 -0.27686 223.62024295 10.97143317 246.3815918 33.21655273 C269.48016114 56.62275285 275.52270664 85.9077185 277.6940918 117.52905273 C277.82055871 119.29731674 277.94750936 121.06554622 278.07495117 122.83374023 C278.19973949 124.58891739 278.32410152 126.34412491 278.44799805 128.09936523 C278.50218399 128.8656424 278.55636993 129.63191956 278.61219788 130.42141724 C278.79459991 133.08176568 278.96419012 135.7427159 279.1315918 138.40405273 C279.21672028 139.71132324 279.30184875 141.01859375 279.38955688 142.36547852 C280.08945834 153.58656205 280.30839696 164.77244032 280.3347168 176.01342773 C280.34160946 177.85926331 280.34855872 179.70509867 280.3555603 181.55093384 C280.37459691 187.41864217 280.37921798 193.28631745 280.3815918 199.15405273 C280.38247551 200.14953377 280.38335922 201.1450148 280.38426971 202.17066193 C280.40780726 232.00806912 280.10328984 261.68747554 277.1315918 291.40405273 C277.05205261 292.22529633 276.97251343 293.04653992 276.89056396 293.89266968 C276.64313786 296.44002149 276.3888601 298.9865836 276.1315918 301.53295898 C276.05615143 302.29607391 275.98071106 303.05918884 275.90298462 303.84542847 C272.78694976 333.63337924 258.21718388 357.42619147 235.9987793 377.09545898 C223.4670603 387.18571229 207.75749844 394.60558925 192.1315918 398.40405273 C191.45404972 398.57180301 190.77650764 398.73955328 190.07843399 398.91238689 C180.66566461 400.9396018 171.24639457 400.6928277 161.66967773 400.67871094 C159.71212063 400.68306441 157.75456523 400.68824967 155.79701233 400.69419861 C150.50548363 400.707533 145.21402661 400.70817338 139.9224844 400.70563531 C135.49200029 400.70456159 131.06153044 400.70945929 126.63104939 400.71424073 C116.17044449 400.72531718 105.7098755 400.72578413 95.24926758 400.71972656 C84.48895616 400.71369083 73.72877564 400.72599196 62.96848655 400.74729663 C53.70270578 400.76496186 44.43696649 400.77090616 35.17116952 400.76765889 C29.64931186 400.76585338 24.12754754 400.7684085 18.60570526 400.78237343 C13.40829168 400.79502711 8.21108075 400.7929369 3.01366997 400.77996254 C1.11714291 400.77761336 -0.77939875 400.78027116 -2.67590904 400.78858566 C-13.81467607 400.83385927 -24.03300437 400.11904704 -34.8684082 397.40405273 C-35.62063282 397.21736684 -36.37285744 397.03068094 -37.14787674 396.8383379 C-64.39222319 389.48271357 -87.73730091 370.61457735 -101.99829102 346.49291992 C-111.88408109 329.00132164 -114.961162 311.28085668 -116.68548584 291.43988037 C-116.87152812 289.36932974 -117.07524406 287.30114801 -117.28295898 285.23266602 C-122.81259245 229.30211655 -122.59696409 170.65684894 -117.0930481 114.73434448 C-116.84211238 112.13127425 -116.61026793 109.52684228 -116.37988281 106.921875 C-116.2109106 105.0500292 -116.04172493 103.17820267 -115.87231445 101.30639648 C-115.79739777 100.44924042 -115.72248108 99.59208435 -115.64529419 98.70895386 C-113.05407941 70.79119969 -100.01104328 44.99666007 -78.8684082 26.40405273 C-55.52796183 7.49761594 -29.74650689 -0.07942839 0 0 Z M-14.99020386 33.28642273 C-15.66876973 33.36290663 -16.34733561 33.43939052 -17.04646409 33.51819211 C-37.09444731 36.05285774 -54.9785283 46.87305534 -67.4699707 62.57202148 C-80.55413835 80.53540215 -82.96814564 99.79104971 -84.4934082 121.27905273 C-84.61503413 122.88457999 -84.73742848 124.49004923 -84.8605957 126.09545898 C-85.16316416 130.09068304 -85.44451968 134.08697238 -85.71255493 138.08465576 C-85.81381045 139.59153299 -85.91733982 141.09825977 -86.02352905 142.60479736 C-86.95178797 155.91555902 -86.98633726 169.19052128 -86.9309082 182.52905273 C-86.92587721 184.66316625 -86.92131717 186.79728094 -86.91723633 188.93139648 C-86.9063711 194.08897806 -86.88919704 199.24650201 -86.8684082 204.40405273 C-80.87544416 203.91474721 -74.95839519 203.27424208 -69.01293945 202.36499023 C-59.21181506 201.03505876 -49.43391594 201.00819505 -39.5559082 201.02905273 C-38.58585846 201.02959656 -37.61580872 201.03014038 -36.61636353 201.03070068 C-21.02631465 201.07080969 -6.12743379 201.96424821 9.1315918 205.40405273 C10.57139404 205.71753662 10.57139404 205.71753662 12.0402832 206.03735352 C40.69171902 212.42614036 69.43800397 223.83190857 93.1315918 241.40405273 C94.18604492 242.17749023 95.24049805 242.95092773 96.3269043 243.74780273 C104.32203693 249.66060943 104.32203693 249.66060943 107.66674805 252.73217773 C109.94838189 254.6070245 109.94838189 254.6070245 112.40112305 254.44702148 C116.42158401 252.91130893 120.06914878 250.81582132 123.8190918 248.71655273 C158.97405736 229.71149148 201.60956215 227.54156323 239.57543945 238.77783203 C240.27717285 238.98835205 240.97890625 239.19887207 241.7019043 239.41577148 C244.85701956 240.49634894 244.85701956 240.49634894 247.1315918 240.40405273 C247.90074676 185.33802443 247.90074676 185.33802443 245.7565918 130.34155273 C245.69337738 129.46529236 245.63016296 128.58903198 245.56503296 127.68621826 C245.15930077 122.25110962 244.66945363 116.82751751 244.1315918 111.40405273 C244.05537598 110.60653595 243.97916016 109.80901917 243.90063477 108.98733521 C243.66663108 106.56270027 243.4208766 104.1395632 243.1706543 101.71655273 C243.06534897 100.63729774 243.06534897 100.63729774 242.95791626 99.53623962 C241.20809114 83.40671378 233.66881001 69.47924757 223.1315918 57.40405273 C222.61209961 56.78916992 222.09260742 56.17428711 221.55737305 55.54077148 C207.84747062 40.51858621 186.86955798 33.64516507 167.1315918 32.40405273 C161.51138645 32.25936732 155.89350453 32.25677137 150.27172852 32.25878906 C148.59327623 32.25579128 146.91482462 32.25238734 145.2363739 32.24861145 C140.7050329 32.23982896 136.17371081 32.23743574 131.64236212 32.23679566 C128.80237605 32.23608175 125.96239471 32.23394096 123.12240982 32.23129845 C113.18894397 32.22206316 103.25549148 32.21796117 93.32202148 32.21875 C84.10456555 32.2193499 74.88716831 32.20881069 65.66972721 32.19300634 C57.72195663 32.17987112 49.77420509 32.17456862 41.82642376 32.17520541 C37.09482131 32.1754587 32.36327105 32.17270217 27.63167953 32.16202736 C23.17463561 32.15224537 18.7176927 32.1523353 14.26064491 32.15954399 C12.63909187 32.1605775 11.0175322 32.15830185 9.39599037 32.15218353 C1.21065991 32.12333751 -6.85172664 32.358069 -14.99020386 33.28642273 Z " fill="#8D0CF8" transform="translate(135.868408203125,15.595947265625)"/>
<path d="M0 0 C2.71949743 2.71949743 2.36424625 4.36223167 2.5690918 8.17602539 C2.64384232 9.48937363 2.71859283 10.80272186 2.79560852 12.15586853 C2.86835667 13.61559582 2.9403696 15.07535991 3.01171875 16.53515625 C3.09107315 18.0609783 3.17080869 19.58678056 3.25090027 21.11256409 C3.4203549 24.37843164 3.58274978 27.64457615 3.74212646 30.91094971 C3.95035577 35.11804473 4.19216536 39.32245867 4.44276619 43.52721214 C4.9549869 52.17075945 5.3378668 60.8083999 5.56294441 69.46440697 C5.68229597 73.91613264 5.85462962 78.35261987 6.14672852 82.79663086 C8.17180409 114.47513903 8.17180409 114.47513903 -1.85791016 126.29736328 C-8.2235181 133.32217917 -15.52589358 139.21131051 -23 145 C-28.36431336 149.47972327 -33.37487389 154.2458139 -38.28125 159.21875 C-38.93903442 159.88032104 -39.59681885 160.54189209 -40.27453613 161.22351074 C-42.35217274 163.31322735 -44.42650627 165.40617315 -46.5 167.5 C-49.2365815 170.263417 -51.97662263 173.02333722 -54.71875 175.78125 C-55.63630066 176.71124817 -55.63630066 176.71124817 -56.5723877 177.66003418 C-60.25545639 181.36357685 -64.07180494 184.83401621 -68.02331543 188.24816895 C-71.24528472 191.10363003 -74.25865872 194.15515419 -77.28125 197.21875 C-77.93903442 197.88032104 -78.59681885 198.54189209 -79.27453613 199.22351074 C-81.35217274 201.31322735 -83.42650627 203.40617315 -85.5 205.5 C-88.2365815 208.263417 -90.97662263 211.02333722 -93.71875 213.78125 C-94.63630066 214.71124817 -94.63630066 214.71124817 -95.5723877 215.66003418 C-99.25979398 219.36793855 -103.08051071 222.84342903 -107.03674316 226.26159668 C-110.17829211 229.04334129 -113.11724269 232.01330552 -116.0625 235 C-116.69808838 235.639375 -117.33367676 236.27875 -117.98852539 236.9375 C-119.9948365 238.95588397 -121.99784001 240.97749876 -124 243 C-139.94170997 259.10367219 -139.94170997 259.10367219 -144.74717712 262.8690033 C-146.70213211 264.71823995 -148.05251418 266.40310951 -149.60523987 268.57154846 C-154.80275589 275.34664393 -159.74613382 280.08745439 -168.44918823 281.32711792 C-175.693548 281.87433167 -182.92233426 281.74097436 -190.17554927 281.52090907 C-193.83458452 281.42612299 -197.49387243 281.41825086 -201.15394592 281.40052795 C-208.06129839 281.35419359 -214.96502258 281.23152422 -221.87078816 281.08028561 C-229.742296 280.91169823 -237.61399191 280.82992427 -245.48686016 280.75485408 C-261.66001941 280.59872302 -277.82954443 280.33548188 -294 280 C-293.04278488 278.87477368 -292.0843676 277.75056995 -291.1254425 276.62680054 C-290.59185277 276.00065039 -290.05826303 275.37450024 -289.50850391 274.72937584 C-287.84291452 272.8199144 -286.09590285 271.065829 -284.23046875 269.3515625 C-283.57369141 268.743125 -282.91691406 268.1346875 -282.24023438 267.5078125 C-281.22413086 266.57582031 -281.22413086 266.57582031 -280.1875 265.625 C-275.71751706 261.4850705 -271.27548465 257.34263886 -267 253 C-264.47938575 250.44141039 -261.91934663 248.01874998 -259.1875 245.6875 C-255.06030933 242.15462478 -251.26585364 238.32494693 -247.4753418 234.43823242 C-246.53145267 233.47779221 -245.57801088 232.52661965 -244.6139679 231.58641052 C-243.56425723 230.55462293 -242.53502368 229.50143433 -241.53112793 228.42501831 C-237.4092825 224.35948094 -234.3527113 223.30152757 -228.60389709 223.19340515 C-227.22408913 223.21175163 -227.22408913 223.21175163 -225.81640625 223.23046875 C-224.84323959 223.21913406 -223.87007294 223.20779938 -222.86741638 223.19612122 C-219.7652318 223.16553025 -216.66478247 223.17517881 -213.5625 223.1875 C-210.50223095 223.17321891 -207.44209631 223.15058632 -204.38188171 223.12762451 C-202.3864664 223.11290246 -200.39103067 223.10071923 -198.39558411 223.09112549 C-186.92999363 223.02075829 -175.44796701 222.72533827 -164.1875 220.375 C-163.35694092 220.20315186 -162.52638184 220.03130371 -161.6706543 219.85424805 C-126.88778073 212.19590496 -96.19760318 191.02004803 -77 161 C-60.01147316 133.42525801 -57.00570196 102.58598864 -55.6171875 70.890625 C-55.55354004 69.62202637 -55.48989258 68.35342773 -55.42431641 67.04638672 C-55.31119253 64.66381414 -55.22587169 62.2796976 -55.17333984 59.89501953 C-54.90818221 54.43671268 -54.58395859 50.91795476 -50.65234375 46.92578125 C-49.45862121 45.9216205 -48.24082648 44.94533695 -47 44 C-45.76647637 42.9425614 -44.53680862 41.88059426 -43.3125 40.8125 C-42.64863281 40.24144531 -41.98476563 39.67039063 -41.30078125 39.08203125 C-38.43113666 36.48522214 -35.71900406 33.752891 -33 31 C-29.17143925 27.1240194 -25.28264859 23.43953648 -21.12890625 19.91015625 C-17.73821475 16.86786607 -14.57810634 13.59865244 -11.37792969 10.35839844 C-7.74191927 6.69440076 -3.99801131 3.27110016 0 0 Z " fill="#B91CEE" transform="translate(492,216)"/>
<path d="M0 0 C10.23906578 7.73254248 18.72711365 17.59665562 20.6875 30.6875 C22.11678455 48.13329299 19.50517553 61.04058775 8.03125 74.65234375 C0.02533375 83.28136197 -10.26078398 88.35475631 -21.96875 89.00390625 C-38.65548452 89.56319388 -50.64291019 85.89777041 -63.0625 74.375 C-73.05541038 63.81645319 -75.82689781 52.26922077 -75.73217773 38.15722656 C-75.32139743 24.03483761 -69.475381 12.95884274 -59.25 3.28125 C-42.59283172 -10.42061423 -18.05009418 -11.9794347 0 0 Z " fill="#8007FA" transform="translate(331.3125,79.3125)"/>
<path d="M0 0 C-0.95478454 29.99340393 -7.15362748 57.2585027 -28 80 C-28.83144531 80.91265625 -29.66289062 81.8253125 -30.51953125 82.765625 C-48.03500659 101.12738246 -73.36667953 114.81690287 -99.04052734 116.15893555 C-102.09205315 116.19515327 -105.1362319 116.17588709 -108.1875 116.125 C-109.75854492 116.11146484 -109.75854492 116.11146484 -111.36132812 116.09765625 C-113.90780514 116.07440075 -116.45377031 116.04172569 -119 116 C-114.60514612 110.74260471 -109.98296044 105.83020066 -105.125 101 C-104.45597656 100.32710938 -103.78695313 99.65421875 -103.09765625 98.9609375 C-102.42863281 98.29320312 -101.75960938 97.62546875 -101.0703125 96.9375 C-100.48008301 96.34839844 -99.88985352 95.75929688 -99.28173828 95.15234375 C-97.29482935 93.27810995 -95.26711156 91.49004123 -93.20068359 89.70507812 C-89.20091519 86.22296626 -85.44197607 82.55498543 -81.71875 78.78125 C-81.06096558 78.11967896 -80.40318115 77.45810791 -79.72546387 76.77648926 C-77.64782726 74.68677265 -75.57349373 72.59382685 -73.5 70.5 C-70.7634185 67.736583 -68.02337737 64.97666278 -65.28125 62.21875 C-64.66954956 61.59875122 -64.05784912 60.97875244 -63.4276123 60.33996582 C-59.74020602 56.63206145 -55.91948929 53.15657097 -51.96325684 49.73840332 C-48.82170789 46.95665871 -45.88275731 43.98669448 -42.9375 41 C-42.30191162 40.360625 -41.66632324 39.72125 -41.01147461 39.0625 C-39.0051635 37.04411603 -37.00215999 35.02250124 -35 33 C-19.69975692 17.54431178 -19.69975692 17.54431178 -13.62841797 12.40576172 C-10.43569523 9.64958517 -7.54846307 6.5883547 -4.60742188 3.56835938 C-1.09845267 0 -1.09845267 0 0 0 Z " fill="#CC23EA" transform="translate(493,380)"/>
<path d="M0 0 C20.19314698 12.71420365 33.1006126 35.33393261 39 58 C36.50434749 60.52516805 34.00267549 63.04429373 31.5 65.5625 C30.80390625 66.26697266 30.1078125 66.97144531 29.390625 67.69726562 C25.34555719 71.7610606 21.20148224 75.62178453 16.85742188 79.36303711 C14.10911417 81.78514584 11.55585125 84.37807912 9 87 C5.01041486 91.0450661 0.95243537 94.91899157 -3.3828125 98.59765625 C-5.17956262 100.11608066 -5.17956262 100.11608066 -7.375 102.4375 C-9 104 -9 104 -11 104 C-11.00808685 103.44767197 -11.01617371 102.89534393 -11.02450562 102.32627869 C-11.11329273 96.36012723 -11.21306998 90.39421828 -11.31710815 84.42831421 C-11.37501811 80.93640782 -11.42302335 77.44444851 -11.47094727 73.95239258 C-11.64308537 63.06441015 -11.93741436 52.2627063 -13.00390625 41.421875 C-15.49837768 15.1007238 -15.49837768 15.1007238 -11.01171875 8.4921875 C-7.77454779 4.8263635 -4.2885325 2.31537977 0 0 Z " fill="#9F12F4" transform="translate(450,119)"/>
<path d="M0 0 C48.51 0.495 48.51 0.495 98 1 C92.36947843 7.56894183 86.74905425 13.69022754 80.1875 19.3125 C76.28529059 22.66272694 72.68669142 26.28327161 69.078125 29.94140625 C65.77664453 33.27047569 62.35706731 36.38734358 58.79296875 39.4296875 C56.05880367 41.82431574 53.53739854 44.3991665 51 47 C30.18761156 40.63638935 13.39317741 22.94425441 2 5 C1.34 3.35 0.68 1.7 0 0 Z " fill="#A414F2" transform="translate(113,439)"/>
</svg>
